<?xml version="1.0" encoding="utf-8"?>
<!-- Generator: Adobe Illustrator 24.0.0, SVG Export Plug-In . SVG Version: 6.00 Build 0)  -->
<svg version="1.1" id="Layer_1" xmlns="http://www.w3.org/2000/svg" xmlns:xlink="http://www.w3.org/1999/xlink" x="0px" y="0px"
	 viewBox="0 0 130 48" style="enable-background:new 0 0 130 48;" xml:space="preserve">
<style type="text/css">
	.st0{fill:#FFFFFF;}
	.st1{fill:#FF9814;}
</style>
<g>
	<g>
		<path class="st0" d="M68.68,19.3h6.09C74.45,15.54,68.94,15.51,68.68,19.3z"/>
		<path class="st0" d="M0,0.7v36.59h118.55L130,47.3V0.7H0z M26.9,25.86c-3.07,1.13-6.97,0.26-9.58-1.6l1.37-2.66
			c1.03,1.03,2.87,1.66,4.26,1.87c1.02,0.15,2.83,0.28,3.45-0.8c0.79-1.38-0.79-2.26-1.87-2.63c-1.6-0.55-3.36-0.78-4.81-1.69
			c-2.68-1.69-2.09-5.7,0.41-7.26c2.79-1.74,6.61-0.93,9.18,0.83l-1.36,2.51c-1.28-1.28-6.85-2.95-6.8,0.22
			c0.02,1.55,2.12,1.86,3.28,2.17c1.43,0.38,3.06,0.75,4.2,1.77C31.1,20.79,29.77,24.81,26.9,25.86z M43.48,26.14
			c-0.88,0.18-2.1,0.33-2.79-0.39c-0.47-0.49-0.43-1.17-0.48-1.8c-1.04,1.6-2.84,2.42-4.72,2.42c-3.5,0-3.69-3.36-3.69-6.03
			c0-1.97,0-3.95,0-5.92h3c0,2,0,4,0,5.99c0,0.96-0.09,2.12,0.61,2.87c1.41,1.51,3.69-0.21,4.36-1.6v-7.27h3c0,1.58,0,3.16,0,4.74
			c0,0.78-0.5,4.36,0.72,4.44V26.14z M52.73,17.01c-1.53,0.03-3.28,0.54-3.98,2.04v7.09h-3V14.42h2.75v2.51
			c0.76-1.46,2.45-2.98,4.23-2.64V17.01z M60.8,26.14h-3.24l-4.32-11.73h3.09l2.98,9.29l3-9.29h2.82L60.8,26.14z M77.79,21.24h-9.06
			c0.13,1.37,1.03,2.54,2.4,2.85c1.26,0.29,2.96-0.22,3.48-1.51l2.57,0.72c-1,2.07-3.25,3.07-5.46,3.07c-2.62,0-5.01-1.5-5.86-4.03
			c-0.81-2.42-0.07-5.31,1.99-6.88c1.98-1.5,4.92-1.67,7.07-0.44C76.95,16.17,78.38,18.89,77.79,21.24z M85.19,28.28
			c-0.85,2.35-3.15,3.54-5.57,2.74v-2.6c0.74,0.22,1.62,0.43,2.22-0.16c0.52-0.51,0.73-1.45,0.93-2.12l-4.63-11.73h3.09l3.18,9.13
			l2.82-9.13h2.82C88.43,19.04,86.86,23.68,85.19,28.28z"/>
	</g>
	<path class="st1" d="M89.45,22.9c0.96,0.68,2.46,0.94,3.59,0.68c1.14-0.27,1.61-1.2,1.81-2.28c0.24-1.33,0.17-2.73,0.17-4.08
		c0-2.32,0-4.64,0-6.96h3.09c0,2.62,0,5.23,0,7.85c0,2.3,0.09,5.31-1.75,7c-1.9,1.75-5.54,1.72-7.61,0.3L89.45,22.9z M110.7,14.42
		c-1.28-1.28-6.85-2.95-6.8,0.22c0.02,1.55,2.12,1.86,3.28,2.17c1.43,0.38,3.06,0.75,4.2,1.77c2.47,2.21,1.14,6.23-1.73,7.28
		c-3.07,1.13-6.97,0.26-9.58-1.6l1.37-2.66c1.03,1.03,2.87,1.66,4.26,1.87c1.02,0.15,2.83,0.28,3.45-0.8
		c0.79-1.38-0.79-2.26-1.87-2.63c-1.6-0.55-3.36-0.78-4.81-1.69c-2.68-1.69-2.09-5.7,0.41-7.26c2.79-1.74,6.61-0.93,9.18,0.83
		L110.7,14.42z"/>
</g>
</svg>
